<?plantuml 1.2026.2?><svg xmlns="http://www.w3.org/2000/svg" xmlns:xlink="http://www.w3.org/1999/xlink" contentStyleType="text/css" data-diagram-type="SEQUENCE" height="796px" preserveAspectRatio="none" style="width:873px;height:796px;background:#FFFFFF;" version="1.1" viewBox="0 0 873 796" width="873px" zoomAndPan="magnify"><title>OTA Sequence</title><defs/><g><text fill="#000000" font-family="sans-serif" font-size="14" font-weight="bold" lengthAdjust="spacing" textLength="103.8311" x="380.884" y="28.5352">OTA Sequence</text><rect fill="none" height="101.9316" style="stroke:#000000;stroke-width:1.5;" width="324.9043" x="10" y="90.9766"/><rect fill="none" height="118.2422" style="stroke:#000000;stroke-width:1.5;" width="597.2354" x="259.3638" y="561.6348"/><g class="participant-lifeline" data-entity-uid="part1" data-qualified-name="wolfBoot" id="part1-lifeline"><g><title>wolfBoot</title><rect fill="#000000" fill-opacity="0.00000" height="687.5215" width="8" x="52.5347" y="73.9766"/><line style="stroke:#181818;stroke-width:0.5;stroke-dasharray:5,5;" x1="56" x2="56" y1="73.9766" y2="761.498"/></g></g><g class="participant-lifeline" data-entity-uid="part2" data-qualified-name="app" id="part2-lifeline"><g><title>app</title><rect fill="#000000" fill-opacity="0.00000" height="687.5215" width="8" x="285.041" y="73.9766"/><line style="stroke:#181818;stroke-width:0.5;stroke-dasharray:5,5;" x1="288.3638" x2="288.3638" y1="73.9766" y2="761.498"/></g></g><g class="participant-lifeline" data-entity-uid="part3" data-qualified-name="mqttBroker" id="part3-lifeline"><g><title>mqttBroker</title><rect fill="#000000" fill-opacity="0.00000" height="687.5215" width="8" x="595.9917" y="73.9766"/><line style="stroke:#181818;stroke-width:0.5;stroke-dasharray:5,5;" x1="599.7686" x2="599.7686" y1="73.9766" y2="761.498"/></g></g><g class="participant-lifeline" data-entity-uid="part4" data-qualified-name="fwserver" id="part4-lifeline"><g><title>fwserver</title><rect fill="#000000" fill-opacity="0.00000" height="687.5215" width="8" x="806.9121" y="73.9766"/><line style="stroke:#181818;stroke-width:0.5;stroke-dasharray:5,5;" x1="810.2251" x2="810.2251" y1="73.9766" y2="761.498"/></g></g><g class="participant participant-head" data-entity-uid="part1" data-qualified-name="wolfBoot" id="part1-head"><rect fill="#E2E2F0" height="30.4883" rx="2.5" ry="2.5" style="stroke:#181818;stroke-width:0.5;" width="73.0693" x="20" y="42.4883"/><text fill="#000000" font-family="sans-serif" font-size="14" lengthAdjust="spacing" textLength="59.0693" x="27" y="63.0234">wolfBoot</text></g><g class="participant participant-tail" data-entity-uid="part1" data-qualified-name="wolfBoot" id="part1-tail"><rect fill="#E2E2F0" height="30.4883" rx="2.5" ry="2.5" style="stroke:#181818;stroke-width:0.5;" width="73.0693" x="20" y="760.498"/><text fill="#000000" font-family="sans-serif" font-size="14" lengthAdjust="spacing" textLength="59.0693" x="27" y="781.0332">wolfBoot</text></g><g class="participant participant-head" data-entity-uid="part2" data-qualified-name="app" id="part2-head"><rect fill="#E2E2F0" height="30.4883" rx="2.5" ry="2.5" style="stroke:#181818;stroke-width:0.5;" width="39.3545" x="269.3638" y="42.4883"/><text fill="#000000" font-family="sans-serif" font-size="14" lengthAdjust="spacing" textLength="25.3545" x="276.3638" y="63.0234">app</text></g><g class="participant participant-tail" data-entity-uid="part2" data-qualified-name="app" id="part2-tail"><rect fill="#E2E2F0" height="30.4883" rx="2.5" ry="2.5" style="stroke:#181818;stroke-width:0.5;" width="39.3545" x="269.3638" y="760.498"/><text fill="#000000" font-family="sans-serif" font-size="14" lengthAdjust="spacing" textLength="25.3545" x="276.3638" y="781.0332">app</text></g><g class="participant participant-head" data-entity-uid="part3" data-qualified-name="mqttBroker" id="part3-head"><rect fill="#E2E2F0" height="30.4883" rx="2.5" ry="2.5" style="stroke:#181818;stroke-width:0.5;" width="90.4463" x="554.7686" y="42.4883"/><text fill="#000000" font-family="sans-serif" font-size="14" lengthAdjust="spacing" textLength="76.4463" x="561.7686" y="63.0234">mqttBroker</text></g><g class="participant participant-tail" data-entity-uid="part3" data-qualified-name="mqttBroker" id="part3-tail"><rect fill="#E2E2F0" height="30.4883" rx="2.5" ry="2.5" style="stroke:#181818;stroke-width:0.5;" width="90.4463" x="554.7686" y="760.498"/><text fill="#000000" font-family="sans-serif" font-size="14" lengthAdjust="spacing" textLength="76.4463" x="561.7686" y="781.0332">mqttBroker</text></g><g class="participant participant-head" data-entity-uid="part4" data-qualified-name="fwserver" id="part4-head"><rect fill="#E2E2F0" height="30.4883" rx="2.5" ry="2.5" style="stroke:#181818;stroke-width:0.5;" width="71.374" x="775.2251" y="42.4883"/><text fill="#000000" font-family="sans-serif" font-size="14" lengthAdjust="spacing" textLength="57.374" x="782.2251" y="63.0234">fwserver</text></g><g class="participant participant-tail" data-entity-uid="part4" data-qualified-name="fwserver" id="part4-tail"><rect fill="#E2E2F0" height="30.4883" rx="2.5" ry="2.5" style="stroke:#181818;stroke-width:0.5;" width="71.374" x="775.2251" y="760.498"/><text fill="#000000" font-family="sans-serif" font-size="14" lengthAdjust="spacing" textLength="57.374" x="782.2251" y="781.0332">fwserver</text></g><path d="M10,90.9766 L329.9043,90.9766 L329.9043,98.2871 L319.9043,108.2871 L10,108.2871 L10,90.9766" fill="#EEEEEE" style="stroke:#000000;stroke-width:1.5;"/><rect fill="none" height="101.9316" style="stroke:#000000;stroke-width:1.5;" width="324.9043" x="10" y="90.9766"/><text fill="#000000" font-family="sans-serif" font-size="13" font-weight="bold" lengthAdjust="spacing" textLength="274.9043" x="25" y="104.5449">Verify the signature of application image</text><g class="message" data-entity-1="part1" data-entity-2="part1" id="msg1"><line style="stroke:#181818;stroke-width:1;" x1="56.5347" x2="98.5347" y1="129.5977" y2="129.5977"/><line style="stroke:#181818;stroke-width:1;" x1="98.5347" x2="98.5347" y1="129.5977" y2="142.5977"/><line style="stroke:#181818;stroke-width:1;" x1="57.5347" x2="98.5347" y1="142.5977" y2="142.5977"/><polygon fill="#181818" points="67.5347,138.5977,57.5347,142.5977,67.5347,146.5977,63.5347,142.5977" style="stroke:#181818;stroke-width:1;"/><text fill="#000000" font-family="sans-serif" font-size="13" font-weight="bold" lengthAdjust="spacing" textLength="8.5757" x="63.5347" y="124.8555">1</text><text fill="#000000" font-family="sans-serif" font-size="13" lengthAdjust="spacing" textLength="98.249" x="76.1104" y="124.8555">Hash the image</text></g><g class="message" data-entity-1="part1" data-entity-2="part1" id="msg2"><line style="stroke:#181818;stroke-width:1;" x1="56.5347" x2="98.5347" y1="171.9082" y2="171.9082"/><line style="stroke:#181818;stroke-width:1;" x1="98.5347" x2="98.5347" y1="171.9082" y2="184.9082"/><line style="stroke:#181818;stroke-width:1;" x1="57.5347" x2="98.5347" y1="184.9082" y2="184.9082"/><polygon fill="#181818" points="67.5347,180.9082,57.5347,184.9082,67.5347,188.9082,63.5347,184.9082" style="stroke:#181818;stroke-width:1;"/><text fill="#000000" font-family="sans-serif" font-size="13" font-weight="bold" lengthAdjust="spacing" textLength="8.5757" x="63.5347" y="167.166">2</text><text fill="#000000" font-family="sans-serif" font-size="13" lengthAdjust="spacing" textLength="205.9307" x="76.1104" y="167.166">Verify Signature in image header</text></g><g class="message" data-entity-1="part1" data-entity-2="part2" id="msg3"><polygon fill="#181818" points="277.041,217.2188,287.041,221.2188,277.041,225.2188,281.041,221.2188" style="stroke:#181818;stroke-width:1;"/><line style="stroke:#181818;stroke-width:1;" x1="56.5347" x2="283.041" y1="221.2188" y2="221.2188"/><text fill="#000000" font-family="sans-serif" font-size="13" font-weight="bold" lengthAdjust="spacing" textLength="8.5757" x="94.4795" y="216.4766">3</text><text fill="#000000" font-family="sans-serif" font-size="13" lengthAdjust="spacing" textLength="144.041" x="107.0552" y="216.4766">Trigger the application</text></g><rect fill="#EEEEEE" height="3" style="stroke:#EEEEEE;stroke-width:1;" width="866.5991" x="0" y="249.874"/><line style="stroke:#000000;stroke-width:1;" x1="0" x2="866.5991" y1="249.874" y2="249.874"/><line style="stroke:#000000;stroke-width:1;" x1="0" x2="866.5991" y1="252.874" y2="252.874"/><rect fill="#EEEEEE" height="23.3105" style="stroke:#000000;stroke-width:2;" width="245.499" x="310.55" y="239.2188"/><text fill="#000000" font-family="sans-serif" font-size="13" font-weight="bold" lengthAdjust="spacing" textLength="227.2144" x="316.55" y="255.7871">TCP &amp; TLS connection established</text><g class="message" data-entity-1="part2" data-entity-2="part3" id="msg4"><polygon fill="#181818" points="587.9917,289.8398,597.9917,293.8398,587.9917,297.8398,591.9917,293.8398" style="stroke:#181818;stroke-width:1;"/><line style="stroke:#181818;stroke-width:1;" x1="289.041" x2="593.9917" y1="293.8398" y2="293.8398"/><text fill="#000000" font-family="sans-serif" font-size="13" font-weight="bold" lengthAdjust="spacing" textLength="8.5757" x="391.3638" y="289.0977">4</text><text fill="#000000" font-family="sans-serif" font-size="13" lengthAdjust="spacing" textLength="93.7295" x="403.9395" y="289.0977">MQTT Connect</text></g><g class="message" data-entity-1="part3" data-entity-2="part2" id="msg5"><polygon fill="#181818" points="300.041,319.1504,290.041,323.1504,300.041,327.1504,296.041,323.1504" style="stroke:#181818;stroke-width:1;"/><line style="stroke:#181818;stroke-width:1;" x1="294.041" x2="598.9917" y1="323.1504" y2="323.1504"/><text fill="#000000" font-family="sans-serif" font-size="13" font-weight="bold" lengthAdjust="spacing" textLength="8.5757" x="377.6941" y="318.4082">5</text><text fill="#000000" font-family="sans-serif" font-size="13" lengthAdjust="spacing" textLength="121.0688" x="390.2698" y="318.4082">MQTT Connect Ack</text></g><g class="message" data-entity-1="part2" data-entity-2="part3" id="msg6"><polygon fill="#181818" points="587.9917,348.4609,597.9917,352.4609,587.9917,356.4609,591.9917,352.4609" style="stroke:#181818;stroke-width:1;"/><line style="stroke:#181818;stroke-width:1;" x1="289.041" x2="593.9917" y1="352.4609" y2="352.4609"/><text fill="#000000" font-family="sans-serif" font-size="13" font-weight="bold" lengthAdjust="spacing" textLength="8.5757" x="386.7839" y="347.7188">6</text><text fill="#000000" font-family="sans-serif" font-size="13" lengthAdjust="spacing" textLength="102.8892" x="399.3596" y="347.7188">MQTT Subscribe</text></g><g class="message" data-entity-1="part3" data-entity-2="part2" id="msg7"><polygon fill="#181818" points="300.041,377.7715,290.041,381.7715,300.041,385.7715,296.041,381.7715" style="stroke:#181818;stroke-width:1;"/><line style="stroke:#181818;stroke-width:1;" x1="294.041" x2="598.9917" y1="381.7715" y2="381.7715"/><text fill="#000000" font-family="sans-serif" font-size="13" font-weight="bold" lengthAdjust="spacing" textLength="8.5757" x="373.1143" y="377.0293">7</text><text fill="#000000" font-family="sans-serif" font-size="13" lengthAdjust="spacing" textLength="130.2285" x="385.6899" y="377.0293">MQTT Subscribe Ack</text></g><polygon fill="#FEFFDD" points="259,394.7715,318,394.7715,328,420.7715,318,447.7715,259,447.7715,249,420.7715,259,394.7715" style="stroke:#181818;stroke-width:0.5;"/><text fill="#000000" font-family="sans-serif" font-size="13" lengthAdjust="spacing" textLength="46.8521" x="261" y="411.3398">Waiting</text><text fill="#000000" font-family="sans-serif" font-size="13" lengthAdjust="spacing" textLength="18.0845" x="261" y="426.6504">for</text><text fill="#000000" font-family="sans-serif" font-size="13" lengthAdjust="spacing" textLength="55.1611" x="261" y="441.9609">message</text><g class="message" data-entity-1="part4" data-entity-2="part3" id="msg8"><polygon fill="#181818" points="610.9917,471.0137,600.9917,475.0137,610.9917,479.0137,606.9917,475.0137" style="stroke:#181818;stroke-width:1;"/><line style="stroke:#181818;stroke-width:1;" x1="604.9917" x2="809.9121" y1="475.0137" y2="475.0137"/><text fill="#000000" font-family="sans-serif" font-size="13" font-weight="bold" lengthAdjust="spacing" textLength="8.5757" x="611.9917" y="470.2715">8</text><text fill="#000000" font-family="sans-serif" font-size="13" lengthAdjust="spacing" textLength="174.3447" x="624.5674" y="470.2715">Trigger the Erase command</text></g><g class="message" data-entity-1="part3" data-entity-2="part2" id="msg9"><polygon fill="#181818" points="300.041,500.3242,290.041,504.3242,300.041,508.3242,296.041,504.3242" style="stroke:#181818;stroke-width:1;"/><line style="stroke:#181818;stroke-width:1;" x1="294.041" x2="598.9917" y1="504.3242" y2="504.3242"/><text fill="#000000" font-family="sans-serif" font-size="13" font-weight="bold" lengthAdjust="spacing" textLength="8.5757" x="371.4893" y="499.582">9</text><text fill="#000000" font-family="sans-serif" font-size="13" lengthAdjust="spacing" textLength="133.4785" x="384.0649" y="499.582">MQTT Publish (Erase)</text></g><g class="message" data-entity-1="part2" data-entity-2="part2" id="msg10"><line style="stroke:#181818;stroke-width:1;" x1="289.041" x2="331.041" y1="533.6348" y2="533.6348"/><line style="stroke:#181818;stroke-width:1;" x1="331.041" x2="331.041" y1="533.6348" y2="546.6348"/><line style="stroke:#181818;stroke-width:1;" x1="290.041" x2="331.041" y1="546.6348" y2="546.6348"/><polygon fill="#181818" points="300.041,542.6348,290.041,546.6348,300.041,550.6348,296.041,546.6348" style="stroke:#181818;stroke-width:1;"/><text fill="#000000" font-family="sans-serif" font-size="13" font-weight="bold" lengthAdjust="spacing" textLength="17.1514" x="296.041" y="528.8926">10</text><text fill="#000000" font-family="sans-serif" font-size="13" lengthAdjust="spacing" textLength="275.1201" x="317.1924" y="528.8926">Erase the update partition for new firmware</text></g><path d="M259.3638,561.6348 L518.8257,561.6348 L518.8257,568.9453 L508.8257,578.9453 L259.3638,578.9453 L259.3638,561.6348" fill="#EEEEEE" style="stroke:#000000;stroke-width:1.5;"/><rect fill="none" height="118.2422" style="stroke:#000000;stroke-width:1.5;" width="597.2354" x="259.3638" y="561.6348"/><text fill="#000000" font-family="sans-serif" font-size="13" font-weight="bold" lengthAdjust="spacing" textLength="214.4619" x="274.3638" y="575.2031">Repeat for each firmware chunk</text><g class="message" data-entity-1="part4" data-entity-2="part3" id="msg11"><polygon fill="#181818" points="610.9917,596.2559,600.9917,600.2559,610.9917,604.2559,606.9917,600.2559" style="stroke:#181818;stroke-width:1;"/><line style="stroke:#181818;stroke-width:1;" x1="604.9917" x2="809.9121" y1="600.2559" y2="600.2559"/><text fill="#000000" font-family="sans-serif" font-size="13" font-weight="bold" lengthAdjust="spacing" textLength="17.1514" x="620.834" y="595.5137">11</text><text fill="#000000" font-family="sans-serif" font-size="13" lengthAdjust="spacing" textLength="148.0845" x="641.9854" y="595.5137">Publish firmware chunk</text></g><g class="message" data-entity-1="part3" data-entity-2="part2" id="msg12"><polygon fill="#181818" points="300.041,625.5664,290.041,629.5664,300.041,633.5664,296.041,629.5664" style="stroke:#181818;stroke-width:1;"/><line style="stroke:#181818;stroke-width:1;" x1="294.041" x2="598.9917" y1="629.5664" y2="629.5664"/><text fill="#000000" font-family="sans-serif" font-size="13" font-weight="bold" lengthAdjust="spacing" textLength="17.1514" x="390.1926" y="624.8242">12</text><text fill="#000000" font-family="sans-serif" font-size="13" lengthAdjust="spacing" textLength="87.4961" x="411.344" y="624.8242">MQTT Publish</text></g><g class="message" data-entity-1="part2" data-entity-2="part2" id="msg13"><line style="stroke:#181818;stroke-width:1;" x1="289.041" x2="331.041" y1="658.877" y2="658.877"/><line style="stroke:#181818;stroke-width:1;" x1="331.041" x2="331.041" y1="658.877" y2="671.877"/><line style="stroke:#181818;stroke-width:1;" x1="290.041" x2="331.041" y1="671.877" y2="671.877"/><polygon fill="#181818" points="300.041,667.877,290.041,671.877,300.041,675.877,296.041,671.877" style="stroke:#181818;stroke-width:1;"/><text fill="#000000" font-family="sans-serif" font-size="13" font-weight="bold" lengthAdjust="spacing" textLength="17.1514" x="296.041" y="654.1348">13</text><text fill="#000000" font-family="sans-serif" font-size="13" lengthAdjust="spacing" textLength="275.7993" x="317.1924" y="654.1348">Write the new data chunk into internal flash</text></g><g class="message" data-entity-1="part2" data-entity-2="part1" id="msg14"><polygon fill="#181818" points="67.5347,704.1875,57.5347,708.1875,67.5347,712.1875,63.5347,708.1875" style="stroke:#181818;stroke-width:1;"/><line style="stroke:#181818;stroke-width:1;" x1="61.5347" x2="288.041" y1="708.1875" y2="708.1875"/><text fill="#000000" font-family="sans-serif" font-size="13" font-weight="bold" lengthAdjust="spacing" textLength="17.1514" x="103.1187" y="703.4453">14</text><text fill="#000000" font-family="sans-serif" font-size="13" lengthAdjust="spacing" textLength="118.187" x="124.27" y="703.4453">Trigger the update</text></g><path d="M61,721.1875 L61,746.1875 L423,746.1875 L423,731.1875 L413,721.1875 L61,721.1875" fill="#FEFFDD" style="stroke:#181818;stroke-width:0.5;"/><path d="M413,721.1875 L413,731.1875 L423,731.1875 L413,721.1875" fill="#FEFFDD" style="stroke:#181818;stroke-width:0.5;"/><text fill="#000000" font-family="sans-serif" font-size="13" lengthAdjust="spacing" textLength="341.1548" x="67" y="738.7559">The downloaded firmware will be applied in next boot</text><?plantuml-src VPB1JkGm38RlVGgV47lW1KOQf04XxO7HiaorNBYugTj6apebSUZks-EcPQPQCLoggB_z-tFoYnL7yAlSmO7U4h6X8Xuj3nYmXxZysbECsDBEsPR140k50fDuJdsbnpRuDC0V2hRv1z8HHAr3IO70Du33uAn1iPx1zcfJZDurTzxBpUtdQGC_CNQvztB9Ck1mChUB8NI4jN8Grwj6dRk1CjYsfP2TLo35TWlb_HDSGVbu0EEPoMH0YeALix6Z6hRRGbjkRlitaRlWZnGsiFzTbd0_rnTdOPcsLc5dZXVw3wcA9jYABZYSzEpHiHUzo7VT8fUye1NBxIitFhnoFpzDqOoHmllainwtNlyXO2JTjUzHx-dhoKyfBm_NkVZ7p9_bkNloIKED2gG94PllJ3c0QOJ6Xdx4G4iUdcaWbAmIckuaW-aI7oy0VmByL_mjxOho9LYPAISWvSJPGACYVlfGO7JGE4tR51V8gBF1EMZhMvktBV8RwEzEO5MdUkr7TbxZLv-PH-iSL4lWLD2SClqLgBJh0m00?></g></svg>